<?xml version="1.0" encoding="UTF-8"?>
<svg version="1.1" viewBox="0 0 1440 865" xmlns="http://www.w3.org/2000/svg">
<title>bg-hero</title>
<g fill="none" fill-rule="evenodd">
<g transform="translate(0 -140)">
<g transform="translate(0 138)">
<polygon points="972.54 473.69 1442 -3.5305e-14 1442 124.13 1442 636 0 548.47 0 538.96 686.65 394.1" fill="#2AB7CA"/>
<polygon points="1439.1 4.2613 1442 236.5 1426.8 183.15 1386.9 236.5 1364.9 163.83 1284 192.63 1325.2 120.38" fill="#fff"/>
<g transform="translate(956 361)">
<path d="m3.5999 47.903h4.4001v18.097h-4.4001c-1.9881 0-3.5999-1.8234-3.5999-4.0717v-9.9531c-2.2744e-4 -2.2486 1.6119-4.072 3.5999-4.072z" fill="#CF4737"/>
<path d="m44.667 26.613h-8.3333c-4.6021 0-8.3333 4.073-8.3333 9.0968v40.935h25v-40.935c0-5.0237-3.7312-9.0968-8.3333-9.0968z" fill="#3E8CC7"/>
<path d="m50.935 4.2581l-16.668 2.2354c-0.1779 0.73089-0.26673 1.4821-0.26673 2.2354v8.942c0 4.9383 3.7913 8.942 8.4675 8.942s8.4675-4.0038 8.4675-8.942v-8.9418c0.086664-1.489 0.086664-2.9823 0-4.471z" fill="#FEC9A3"/>
<g transform="translate(9)" fill="#75462E">
<path d="m25.603 6.7988v9.0652l8.527-9.0652h6.3952c3.5324 0 6.3952-3.0437 6.3952-6.7988h-14.922c-3.5321-9.1562e-16 -6.3952 3.0437-6.3952 6.7988"/>
<path d="m44.789 77.054h-25.581v22.663l-19.186 9.0652 4.2635 9.0652 20.333-9.0062c3.1784-1.4074 5.2485-4.7094 5.2485-8.3694v-10.062c0-2.3682 1.8056-4.2901 4.0354-4.2901 1.4582 0 2.8032 0.83632 3.5173 2.1871l18.028 34.074 8.527-4.5326-19.186-40.794z"/>
</g>
<g transform="translate(0 108.58)" fill="#3E8CC7">
<path d="m7.5816 20.603l-7.3587-15.952 8.5394-4.6278 7.585 16.442c0.5999 1.3028 0.5999 2.8345 0 4.1373-0.72371 1.5688-2.2032 2.5593-3.8193 2.5593h-1.1272c-1.6181 0-3.0973-0.99045-3.8191-2.5593z"/>
<path d="m81.346 16.22l-12.809 6.9416-4.2697-9.2556 12.809-6.9416c2.359-1.2773 5.226-0.24288 6.4044 2.3138 1.1787 2.5569 0.22214 5.6646-2.1347 6.9419z"/>
</g>
<path d="m81.956 41.179c-1.7317-2.4328-5.0091-2.9269-7.3171-1.1019-0.1986 0.15593-0.38424 0.3273-0.55955 0.51183l-10.521 11.089-10.559-13.355v17.807l0.9229 1.458c3.4085 5.3843 10.312 6.8401 15.422 3.2477 0.61022-0.42956 1.1784-0.91937 1.6957-1.4669l10.43-10.994c1.8369-1.9387 2.0439-5.0036 0.48534-7.1962z" fill="#FEC9A3"/>
<g transform="translate(9 24.484)" fill="#75462E">
<path d="m26.125 0.18679h-15.621v4.5124h15.621c3.0314 0.0023092 5.4865 2.6489 5.4844 5.9112 0 0.89109-0.18858 1.7711-0.5493 2.5722l-13.176 29.195-5.2832 0.67685v4.5124l5.9748-0.92726c1.3773-0.21424 2.5639-1.1484 3.1721-2.4955l13.076-28.988c2.3355-5.1756 0.32924-11.41-4.4802-13.923-1.3144-0.68814-2.7567-1.0445-4.218-1.0468z"/>
<path d="m0.021934 43.054c0 3.7386 2.8156 6.7685 6.2893 6.7685h6.2893c3.4739 0 6.2893-3.0302 6.2893-6.7685v-2.2561h-18.868v2.2561z"/>
</g>
<path d="m27.641 32.186c-0.89501-2.7028-3.2891-4.5109-5.9746-4.5086h-6.3333c-3.4982 0-6.3333 3.0276-6.3333 6.7627v31.56h19v-31.56l-0.35892-2.2541z" fill="#DE4C3C"/>
<polygon transform="translate(85.109 82.591) rotate(166.91) translate(-85.109 -82.591)" points="83.632 32.833 87.529 32.797 86.585 132.35 82.688 132.39" fill="#75462E"/>
<path d="m18.5 6.3871c-5.2461 0-9.5 4.5283-9.5 10.113s4.2539 10.113 9.5 10.113 9.5-4.5283 9.5-10.113-4.2539-10.113-9.5-10.113zm0 13.484c-1.748 0-3.1666-1.5101-3.1666-3.3709s1.4186-3.3709 3.1666-3.3709 3.1666 1.5101 3.1666 3.3709-1.4186 3.3709-3.1666 3.3709z" fill="#3E8CC7" fill-rule="nonzero"/>
<path d="m42.448 37.926l-12.508 7.9262 14.665 10.964c2.4758 1.7214 3.14 5.2005 1.4838 7.7738-0.051748 0.080807-0.1057 0.15907-0.16187 0.23758-1.7168 2.3737-4.9149 2.9432-7.2938 1.3001l-18.053-13.304c-2.2387-1.5557-3.5822-4.1716-3.58-6.9713 0-2.7997 1.3457-5.4156 3.5886-6.969l15.897-10.269c2.3787-1.6432 5.5771-1.0737 7.2938 1.3001 1.7793 2.4813 1.2876 5.9917-1.1 7.8431-0.075538 0.058375-0.15304 0.11446-0.23078 0.16824z" fill="#FEC9A3"/>
</g>
<g transform="translate(0 548)" fill="#EE9480">
<polygon points="1440 83.517 1440 319 956.82 110.89 673.73 177.08 0 0"/>
</g>
</g>
</g>
</g>
</svg>
